<svg width="500" height="500" viewBox="0 0 500 500" fill="none" xmlns="http://www.w3.org/2000/svg">
<g clip-path="url(#clip0_4271_340)">
<rect width="500" height="500" rx="100" fill="black"/>
<path d="M166.035 261.048C172.137 267.15 182.03 267.15 188.132 261.048C194.234 254.946 194.234 245.054 188.132 238.952L166.035 261.048ZM115.215 166.035C109.113 159.933 99.2201 159.933 93.1182 166.035C87.0163 172.137 87.0163 182.03 93.1182 188.132L115.215 166.035ZM104.167 161.458C95.5374 161.458 88.5417 168.454 88.5417 177.083C88.5417 185.713 95.5374 192.708 104.167 192.708V161.458ZM395.833 192.708C404.463 192.708 411.458 185.713 411.458 177.083C411.458 168.454 404.463 161.458 395.833 161.458V192.708ZM93.1182 166.035C87.0163 172.137 87.0163 182.03 93.1182 188.132C99.2201 194.234 109.113 194.234 115.215 188.132L93.1182 166.035ZM188.132 115.215C194.234 109.113 194.234 99.22 188.132 93.1182C182.03 87.0163 172.137 87.0163 166.035 93.1182L188.132 115.215ZM333.965 238.952C327.863 232.85 317.971 232.85 311.869 238.952C305.767 245.054 305.767 254.946 311.869 261.048L333.965 238.952ZM384.785 333.965C390.888 340.067 400.779 340.067 406.881 333.965C412.983 327.863 412.983 317.971 406.881 311.869L384.785 333.965ZM395.833 338.542C404.463 338.542 411.458 331.546 411.458 322.917C411.458 314.288 404.463 307.292 395.833 307.292V338.542ZM104.167 307.292C95.5374 307.292 88.5417 314.288 88.5417 322.917C88.5417 331.546 95.5374 338.542 104.167 338.542V307.292ZM406.881 333.965C412.983 327.863 412.983 317.971 406.881 311.869C400.779 305.767 390.888 305.767 384.785 311.869L406.881 333.965ZM311.869 384.785C305.767 390.888 305.767 400.779 311.869 406.881C317.971 412.983 327.863 412.983 333.965 406.881L311.869 384.785ZM188.132 238.952L115.215 166.035L93.1182 188.132L166.035 261.048L188.132 238.952ZM104.167 192.708H395.833V161.458H104.167V192.708ZM115.215 188.132L188.132 115.215L166.035 93.1182L93.1182 166.035L115.215 188.132ZM311.869 261.048L384.785 333.965L406.881 311.869L333.965 238.952L311.869 261.048ZM395.833 307.292H104.167V338.542H395.833V307.292ZM384.785 311.869L311.869 384.785L333.965 406.881L406.881 333.965L384.785 311.869Z" fill="white"/>
</g>
<defs>
<clipPath id="clip0_4271_340">
<rect width="500" height="500" rx="100" fill="white"/>
</clipPath>
</defs>
</svg>
