<svg width="354" height="354" viewBox="0 0 354 354" fill="none" xmlns="http://www.w3.org/2000/svg">
<rect width="354" height="354" fill="black"/>
<path d="M121.247 184.336C125.299 188.388 131.868 188.388 135.92 184.336C139.971 180.284 139.971 173.716 135.92 169.664L121.247 184.336ZM87.503 121.247C83.4513 117.196 76.8822 117.196 72.8305 121.247C68.7789 125.299 68.7789 131.868 72.8305 135.92L87.503 121.247ZM80.1667 118.208C74.4368 118.208 69.7917 122.853 69.7917 128.583C69.7917 134.313 74.4368 138.958 80.1667 138.958V118.208ZM273.833 138.958C279.563 138.958 284.208 134.313 284.208 128.583C284.208 122.853 279.563 118.208 273.833 118.208V138.958ZM72.8305 121.247C68.7789 125.299 68.7789 131.868 72.8305 135.92C76.8822 139.971 83.4513 139.971 87.503 135.92L72.8305 121.247ZM135.92 87.503C139.971 83.4513 139.971 76.8821 135.92 72.8305C131.868 68.7788 125.299 68.7788 121.247 72.8305L135.92 87.503ZM232.753 169.664C228.701 165.612 222.133 165.612 218.081 169.664C214.029 173.716 214.029 180.284 218.081 184.336L232.753 169.664ZM266.498 232.753C270.549 236.804 277.117 236.804 281.169 232.753C285.221 228.701 285.221 222.133 281.169 218.081L266.498 232.753ZM273.833 235.792C279.563 235.792 284.208 231.146 284.208 225.417C284.208 219.687 279.563 215.042 273.833 215.042V235.792ZM80.1667 215.042C74.4368 215.042 69.7917 219.687 69.7917 225.417C69.7917 231.146 74.4368 235.792 80.1667 235.792V215.042ZM281.169 232.753C285.221 228.701 285.221 222.133 281.169 218.081C277.117 214.029 270.549 214.029 266.498 218.081L281.169 232.753ZM218.081 266.498C214.029 270.549 214.029 277.117 218.081 281.169C222.133 285.221 228.701 285.221 232.753 281.169L218.081 266.498ZM135.92 169.664L87.503 121.247L72.8305 135.92L121.247 184.336L135.92 169.664ZM80.1667 138.958H273.833V118.208H80.1667V138.958ZM87.503 135.92L135.92 87.503L121.247 72.8305L72.8305 121.247L87.503 135.92ZM218.081 184.336L266.498 232.753L281.169 218.081L232.753 169.664L218.081 184.336ZM273.833 215.042H80.1667V235.792H273.833V215.042ZM266.498 218.081L218.081 266.498L232.753 281.169L281.169 232.753L266.498 218.081Z" fill="#303030"/>
</svg>
